<mxfile host="app.diagrams.net" agent="Mozilla/5.0 (Windows NT 10.0; Win64; x64) AppleWebKit/537.36 (KHTML, like Gecko) Chrome/134.0.0.0 Safari/537.36" version="26.1.0">
  <diagram name="Page-1" id="phyLkl85yyKm5oMgbY2C">
    <mxGraphModel dx="1315" dy="771" grid="1" gridSize="10" guides="1" tooltips="1" connect="1" arrows="1" fold="1" page="1" pageScale="1" pageWidth="827" pageHeight="1169" math="0" shadow="0">
      <root>
        <mxCell id="0" />
        <mxCell id="1" parent="0" />
        <mxCell id="wJ_lH8WthLFwNz-lASM5-1" value="" style="rounded=1;whiteSpace=wrap;html=1;" parent="1" vertex="1">
          <mxGeometry x="140" y="160" width="120" height="40" as="geometry" />
        </mxCell>
        <mxCell id="wJ_lH8WthLFwNz-lASM5-2" value="&lt;span style=&quot;&quot; data-end=&quot;441&quot; data-start=&quot;424&quot;&gt;User signs up&lt;/span&gt; by providing credentials" style="text;html=1;align=center;verticalAlign=middle;whiteSpace=wrap;rounded=0;" parent="1" vertex="1">
          <mxGeometry x="140" y="165" width="120" height="30" as="geometry" />
        </mxCell>
        <mxCell id="wJ_lH8WthLFwNz-lASM5-3" value="" style="rounded=1;whiteSpace=wrap;html=1;" parent="1" vertex="1">
          <mxGeometry x="110" y="220" width="150" height="60" as="geometry" />
        </mxCell>
        <mxCell id="wJ_lH8WthLFwNz-lASM5-4" value="&lt;br&gt;The user &lt;span style=&quot;&quot; data-end=&quot;623&quot; data-start=&quot;595&quot;&gt;searches for ingredients&lt;/span&gt; by typing keywords &lt;div&gt;&lt;br/&gt;&lt;/div&gt;" style="text;html=1;align=center;verticalAlign=middle;whiteSpace=wrap;rounded=0;" parent="1" vertex="1">
          <mxGeometry x="110" y="240" width="150" height="30" as="geometry" />
        </mxCell>
        <mxCell id="wJ_lH8WthLFwNz-lASM5-5" value="" style="rounded=1;whiteSpace=wrap;html=1;" parent="1" vertex="1">
          <mxGeometry x="115" y="355" width="135" height="60" as="geometry" />
        </mxCell>
        <mxCell id="wJ_lH8WthLFwNz-lASM5-6" value="The user &lt;span style=&quot;&quot; data-end=&quot;819&quot; data-start=&quot;788&quot;&gt;browses through the results&lt;/span&gt; and selects a recipe." style="text;html=1;align=center;verticalAlign=middle;whiteSpace=wrap;rounded=0;" parent="1" vertex="1">
          <mxGeometry x="120" y="370" width="130" height="30" as="geometry" />
        </mxCell>
        <mxCell id="wJ_lH8WthLFwNz-lASM5-7" value="" style="rounded=1;whiteSpace=wrap;html=1;" parent="1" vertex="1">
          <mxGeometry x="520" y="160" width="180" height="50" as="geometry" />
        </mxCell>
        <mxCell id="wJ_lH8WthLFwNz-lASM5-8" value="The &lt;span style=&quot;&quot; data-end=&quot;537&quot; data-start=&quot;517&quot;&gt;system validates&lt;/span&gt; the credentials and creates a new account." style="text;html=1;align=center;verticalAlign=middle;whiteSpace=wrap;rounded=0;" parent="1" vertex="1">
          <mxGeometry x="525" y="170" width="170" height="30" as="geometry" />
        </mxCell>
        <mxCell id="wJ_lH8WthLFwNz-lASM5-9" value="" style="rounded=1;whiteSpace=wrap;html=1;" parent="1" vertex="1">
          <mxGeometry x="520" y="250" width="180" height="60" as="geometry" />
        </mxCell>
        <mxCell id="wJ_lH8WthLFwNz-lASM5-10" value="&lt;br&gt;The &lt;span style=&quot;&quot; data-end=&quot;724&quot; data-start=&quot;689&quot;&gt;system fetches relevant recipes&lt;/span&gt; from the database based on selected ingredients.&lt;div&gt;&lt;br/&gt;&lt;/div&gt;" style="text;html=1;align=center;verticalAlign=middle;whiteSpace=wrap;rounded=0;" parent="1" vertex="1">
          <mxGeometry x="525" y="270" width="170" height="30" as="geometry" />
        </mxCell>
        <mxCell id="wJ_lH8WthLFwNz-lASM5-11" style="edgeStyle=orthogonalEdgeStyle;rounded=0;orthogonalLoop=1;jettySize=auto;html=1;" parent="1" target="wJ_lH8WthLFwNz-lASM5-9" edge="1">
          <mxGeometry relative="1" as="geometry">
            <mxPoint x="500" y="270" as="targetPoint" />
            <mxPoint x="260" y="270" as="sourcePoint" />
          </mxGeometry>
        </mxCell>
        <mxCell id="wJ_lH8WthLFwNz-lASM5-12" style="edgeStyle=orthogonalEdgeStyle;rounded=0;orthogonalLoop=1;jettySize=auto;html=1;entryX=0;entryY=0.5;entryDx=0;entryDy=0;" parent="1" target="wJ_lH8WthLFwNz-lASM5-14" edge="1">
          <mxGeometry relative="1" as="geometry">
            <mxPoint x="520" y="380" as="targetPoint" />
            <mxPoint x="250" y="380" as="sourcePoint" />
            <Array as="points">
              <mxPoint x="250" y="370" />
              <mxPoint x="250" y="390" />
              <mxPoint x="440" y="390" />
              <mxPoint x="440" y="420" />
            </Array>
          </mxGeometry>
        </mxCell>
        <mxCell id="wJ_lH8WthLFwNz-lASM5-14" value="" style="rounded=1;whiteSpace=wrap;html=1;" parent="1" vertex="1">
          <mxGeometry x="535" y="390" width="120" height="60" as="geometry" />
        </mxCell>
        <mxCell id="wJ_lH8WthLFwNz-lASM5-15" value="The &lt;span style=&quot;&quot; data-end=&quot;885&quot; data-start=&quot;851&quot;&gt;system displays recipe details&lt;/span&gt;" style="text;html=1;align=center;verticalAlign=middle;whiteSpace=wrap;rounded=0;" parent="1" vertex="1">
          <mxGeometry x="550" y="405" width="90" height="30" as="geometry" />
        </mxCell>
        <mxCell id="wJ_lH8WthLFwNz-lASM5-16" value="" style="endArrow=none;html=1;rounded=0;" parent="1" source="wJ_lH8WthLFwNz-lASM5-18" target="wJ_lH8WthLFwNz-lASM5-1" edge="1">
          <mxGeometry width="50" height="50" relative="1" as="geometry">
            <mxPoint x="200" y="130" as="sourcePoint" />
            <mxPoint x="200" y="180" as="targetPoint" />
          </mxGeometry>
        </mxCell>
        <mxCell id="wJ_lH8WthLFwNz-lASM5-17" value="" style="endArrow=none;html=1;rounded=0;" parent="1" target="wJ_lH8WthLFwNz-lASM5-18" edge="1">
          <mxGeometry width="50" height="50" relative="1" as="geometry">
            <mxPoint x="200" y="130" as="sourcePoint" />
            <mxPoint x="200" y="160" as="targetPoint" />
          </mxGeometry>
        </mxCell>
        <mxCell id="wJ_lH8WthLFwNz-lASM5-18" value="" style="shape=waypoint;sketch=0;size=6;pointerEvents=1;points=[];fillColor=none;resizable=0;rotatable=0;perimeter=centerPerimeter;snapToPoint=1;" parent="1" vertex="1">
          <mxGeometry x="190" y="120" width="20" height="20" as="geometry" />
        </mxCell>
        <mxCell id="wJ_lH8WthLFwNz-lASM5-19" value="" style="edgeStyle=orthogonalEdgeStyle;rounded=0;orthogonalLoop=1;jettySize=auto;html=1;endArrow=oval;endFill=1;" parent="1" source="wJ_lH8WthLFwNz-lASM5-2" target="wJ_lH8WthLFwNz-lASM5-18" edge="1">
          <mxGeometry relative="1" as="geometry" />
        </mxCell>
        <mxCell id="wJ_lH8WthLFwNz-lASM5-20" style="edgeStyle=orthogonalEdgeStyle;rounded=0;orthogonalLoop=1;jettySize=auto;html=1;" parent="1" source="wJ_lH8WthLFwNz-lASM5-2" target="wJ_lH8WthLFwNz-lASM5-7" edge="1">
          <mxGeometry relative="1" as="geometry">
            <mxPoint x="500" y="180" as="targetPoint" />
          </mxGeometry>
        </mxCell>
        <mxCell id="wJ_lH8WthLFwNz-lASM5-21" value="" style="endArrow=none;html=1;rounded=0;entryX=0.5;entryY=1;entryDx=0;entryDy=0;startArrow=classic;startFill=1;exitX=0.993;exitY=0.117;exitDx=0;exitDy=0;exitPerimeter=0;" parent="1" source="wJ_lH8WthLFwNz-lASM5-3" target="wJ_lH8WthLFwNz-lASM5-7" edge="1">
          <mxGeometry width="50" height="50" relative="1" as="geometry">
            <mxPoint x="260" y="240" as="sourcePoint" />
            <mxPoint x="440" y="310" as="targetPoint" />
            <Array as="points">
              <mxPoint x="610" y="230" />
            </Array>
          </mxGeometry>
        </mxCell>
        <mxCell id="wJ_lH8WthLFwNz-lASM5-22" value="" style="endArrow=none;html=1;rounded=0;entryX=0.441;entryY=1.333;entryDx=0;entryDy=0;entryPerimeter=0;endFill=1;startArrow=classic;startFill=1;exitX=1;exitY=0;exitDx=0;exitDy=0;" parent="1" source="wJ_lH8WthLFwNz-lASM5-6" target="wJ_lH8WthLFwNz-lASM5-10" edge="1">
          <mxGeometry width="50" height="50" relative="1" as="geometry">
            <mxPoint x="260" y="340" as="sourcePoint" />
            <mxPoint x="440" y="310" as="targetPoint" />
            <Array as="points">
              <mxPoint x="600" y="370" />
            </Array>
          </mxGeometry>
        </mxCell>
        <mxCell id="wJ_lH8WthLFwNz-lASM5-23" value="&lt;span id=&quot;docs-internal-guid-25d10dc7-7fff-8219-5624-b3d3df08cb75&quot; style=&quot;font-weight:normal;&quot;&gt;&lt;span style=&quot;font-size: 12pt; font-family: Arial, sans-serif; background-color: transparent; font-weight: 700; font-variant-numeric: normal; font-variant-east-asian: normal; font-variant-alternates: normal; font-variant-position: normal; font-variant-emoji: normal; vertical-align: baseline; white-space-collapse: preserve;&quot;&gt;Recipe Seeker&lt;/span&gt;&lt;/span&gt;" style="swimlane;whiteSpace=wrap;html=1;" parent="1" vertex="1">
          <mxGeometry x="10" y="90" width="390" height="660" as="geometry" />
        </mxCell>
        <mxCell id="wJ_lH8WthLFwNz-lASM5-24" value="" style="rounded=1;whiteSpace=wrap;html=1;" parent="wJ_lH8WthLFwNz-lASM5-23" vertex="1">
          <mxGeometry x="130" y="70" width="120" height="40" as="geometry" />
        </mxCell>
        <mxCell id="wJ_lH8WthLFwNz-lASM5-25" value="&lt;span style=&quot;&quot; data-end=&quot;441&quot; data-start=&quot;424&quot;&gt;User signs up&lt;/span&gt; by providing credentials" style="text;html=1;align=center;verticalAlign=middle;whiteSpace=wrap;rounded=0;" parent="wJ_lH8WthLFwNz-lASM5-23" vertex="1">
          <mxGeometry x="130" y="75" width="120" height="30" as="geometry" />
        </mxCell>
        <mxCell id="wJ_lH8WthLFwNz-lASM5-26" value="" style="rounded=1;whiteSpace=wrap;html=1;" parent="wJ_lH8WthLFwNz-lASM5-23" vertex="1">
          <mxGeometry x="100" y="130" width="150" height="60" as="geometry" />
        </mxCell>
        <mxCell id="wJ_lH8WthLFwNz-lASM5-27" value="&lt;br&gt;The user &lt;span style=&quot;&quot; data-end=&quot;623&quot; data-start=&quot;595&quot;&gt;searches for ingredients&lt;/span&gt; by typing keywords &lt;div&gt;&lt;br/&gt;&lt;/div&gt;" style="text;html=1;align=center;verticalAlign=middle;whiteSpace=wrap;rounded=0;" parent="wJ_lH8WthLFwNz-lASM5-23" vertex="1">
          <mxGeometry x="100" y="150" width="150" height="30" as="geometry" />
        </mxCell>
        <mxCell id="wJ_lH8WthLFwNz-lASM5-28" value="" style="rounded=1;whiteSpace=wrap;html=1;" parent="wJ_lH8WthLFwNz-lASM5-23" vertex="1">
          <mxGeometry x="105" y="265" width="135" height="60" as="geometry" />
        </mxCell>
        <mxCell id="wJ_lH8WthLFwNz-lASM5-29" value="The user &lt;span style=&quot;&quot; data-end=&quot;819&quot; data-start=&quot;788&quot;&gt;browses through the results&lt;/span&gt; and selects a recipe." style="text;html=1;align=center;verticalAlign=middle;whiteSpace=wrap;rounded=0;" parent="wJ_lH8WthLFwNz-lASM5-23" vertex="1">
          <mxGeometry x="110" y="280" width="130" height="30" as="geometry" />
        </mxCell>
        <mxCell id="wJ_lH8WthLFwNz-lASM5-41" value="" style="rounded=1;whiteSpace=wrap;html=1;" parent="wJ_lH8WthLFwNz-lASM5-23" vertex="1">
          <mxGeometry x="90" y="370" width="135" height="60" as="geometry" />
        </mxCell>
        <mxCell id="wJ_lH8WthLFwNz-lASM5-42" value="The user &lt;span style=&quot;&quot; data-end=&quot;1981&quot; data-start=&quot;1943&quot;&gt;adds the recipe to their favorites&lt;/span&gt;." style="text;html=1;align=center;verticalAlign=middle;whiteSpace=wrap;rounded=0;" parent="wJ_lH8WthLFwNz-lASM5-23" vertex="1">
          <mxGeometry x="102.5" y="385" width="110" height="30" as="geometry" />
        </mxCell>
        <mxCell id="wJ_lH8WthLFwNz-lASM5-49" value="" style="rounded=1;whiteSpace=wrap;html=1;" parent="wJ_lH8WthLFwNz-lASM5-23" vertex="1">
          <mxGeometry x="115" y="480" width="120" height="60" as="geometry" />
        </mxCell>
        <mxCell id="wJ_lH8WthLFwNz-lASM5-50" value="The user &lt;span style=&quot;&quot; data-end=&quot;2109&quot; data-start=&quot;2071&quot;&gt;navigates to the favorites section&lt;/span&gt;." style="text;html=1;align=center;verticalAlign=middle;whiteSpace=wrap;rounded=0;" parent="wJ_lH8WthLFwNz-lASM5-23" vertex="1">
          <mxGeometry x="120" y="500" width="110" height="30" as="geometry" />
        </mxCell>
        <mxCell id="wJ_lH8WthLFwNz-lASM5-51" style="edgeStyle=orthogonalEdgeStyle;rounded=0;orthogonalLoop=1;jettySize=auto;html=1;entryX=0;entryY=0.5;entryDx=0;entryDy=0;" parent="wJ_lH8WthLFwNz-lASM5-23" edge="1">
          <mxGeometry relative="1" as="geometry">
            <mxPoint x="520" y="560" as="targetPoint" />
            <mxPoint x="235" y="520" as="sourcePoint" />
            <Array as="points">
              <mxPoint x="235" y="510" />
              <mxPoint x="235" y="530" />
              <mxPoint x="425" y="530" />
              <mxPoint x="425" y="560" />
            </Array>
          </mxGeometry>
        </mxCell>
        <mxCell id="wJ_lH8WthLFwNz-lASM5-30" value="&lt;span id=&quot;docs-internal-guid-d741e282-7fff-c643-d7a1-f52a88dc3bbc&quot; style=&quot;font-weight:normal;&quot;&gt;&lt;span style=&quot;font-size: 12pt; font-family: Arial, sans-serif; background-color: transparent; font-weight: 700; font-variant-numeric: normal; font-variant-east-asian: normal; font-variant-alternates: normal; font-variant-position: normal; font-variant-emoji: normal; vertical-align: baseline; white-space-collapse: preserve;&quot;&gt;&amp;nbsp;Recipe Finder &lt;/span&gt;&lt;/span&gt;" style="swimlane;whiteSpace=wrap;html=1;startSize=23;" parent="1" vertex="1">
          <mxGeometry x="400" y="90" width="390" height="660" as="geometry" />
        </mxCell>
        <mxCell id="wJ_lH8WthLFwNz-lASM5-31" value="" style="rounded=1;whiteSpace=wrap;html=1;" parent="wJ_lH8WthLFwNz-lASM5-30" vertex="1">
          <mxGeometry x="120" y="70" width="180" height="50" as="geometry" />
        </mxCell>
        <mxCell id="wJ_lH8WthLFwNz-lASM5-32" value="The &lt;span style=&quot;&quot; data-end=&quot;537&quot; data-start=&quot;517&quot;&gt;system validates&lt;/span&gt; the credentials and creates a new account." style="text;html=1;align=center;verticalAlign=middle;whiteSpace=wrap;rounded=0;" parent="wJ_lH8WthLFwNz-lASM5-30" vertex="1">
          <mxGeometry x="125" y="80" width="170" height="30" as="geometry" />
        </mxCell>
        <mxCell id="wJ_lH8WthLFwNz-lASM5-33" value="" style="rounded=1;whiteSpace=wrap;html=1;" parent="wJ_lH8WthLFwNz-lASM5-30" vertex="1">
          <mxGeometry x="120" y="160" width="180" height="60" as="geometry" />
        </mxCell>
        <mxCell id="wJ_lH8WthLFwNz-lASM5-34" value="&lt;br&gt;The &lt;span style=&quot;&quot; data-end=&quot;724&quot; data-start=&quot;689&quot;&gt;system fetches relevant recipes&lt;/span&gt; from the database based on selected ingredients.&lt;div&gt;&lt;br/&gt;&lt;/div&gt;" style="text;html=1;align=center;verticalAlign=middle;whiteSpace=wrap;rounded=0;" parent="wJ_lH8WthLFwNz-lASM5-30" vertex="1">
          <mxGeometry x="125" y="180" width="170" height="30" as="geometry" />
        </mxCell>
        <mxCell id="wJ_lH8WthLFwNz-lASM5-35" style="edgeStyle=orthogonalEdgeStyle;rounded=0;orthogonalLoop=1;jettySize=auto;html=1;" parent="wJ_lH8WthLFwNz-lASM5-30" target="wJ_lH8WthLFwNz-lASM5-33" edge="1">
          <mxGeometry relative="1" as="geometry">
            <mxPoint x="100" y="180" as="targetPoint" />
            <mxPoint x="-140" y="180" as="sourcePoint" />
          </mxGeometry>
        </mxCell>
        <mxCell id="wJ_lH8WthLFwNz-lASM5-36" style="edgeStyle=orthogonalEdgeStyle;rounded=0;orthogonalLoop=1;jettySize=auto;html=1;entryX=0;entryY=0.5;entryDx=0;entryDy=0;" parent="wJ_lH8WthLFwNz-lASM5-30" target="wJ_lH8WthLFwNz-lASM5-38" edge="1">
          <mxGeometry relative="1" as="geometry">
            <mxPoint x="120" y="290" as="targetPoint" />
            <mxPoint x="-150" y="290" as="sourcePoint" />
            <Array as="points">
              <mxPoint x="-150" y="280" />
              <mxPoint x="-150" y="300" />
              <mxPoint x="40" y="300" />
              <mxPoint x="40" y="330" />
            </Array>
          </mxGeometry>
        </mxCell>
        <mxCell id="wJ_lH8WthLFwNz-lASM5-38" value="" style="rounded=1;whiteSpace=wrap;html=1;" parent="wJ_lH8WthLFwNz-lASM5-30" vertex="1">
          <mxGeometry x="135" y="300" width="120" height="60" as="geometry" />
        </mxCell>
        <mxCell id="wJ_lH8WthLFwNz-lASM5-39" value="The &lt;span style=&quot;&quot; data-end=&quot;885&quot; data-start=&quot;851&quot;&gt;system displays recipe details&lt;/span&gt;" style="text;html=1;align=center;verticalAlign=middle;whiteSpace=wrap;rounded=0;" parent="wJ_lH8WthLFwNz-lASM5-30" vertex="1">
          <mxGeometry x="150" y="315" width="90" height="30" as="geometry" />
        </mxCell>
        <mxCell id="wJ_lH8WthLFwNz-lASM5-40" value="" style="endArrow=none;html=1;rounded=0;entryX=0.441;entryY=1.333;entryDx=0;entryDy=0;entryPerimeter=0;endFill=1;startArrow=classic;startFill=1;" parent="wJ_lH8WthLFwNz-lASM5-30" edge="1">
          <mxGeometry width="50" height="50" relative="1" as="geometry">
            <mxPoint x="-160" y="390" as="sourcePoint" />
            <mxPoint x="189" y="360" as="targetPoint" />
            <Array as="points">
              <mxPoint x="190" y="390" />
            </Array>
          </mxGeometry>
        </mxCell>
        <mxCell id="wJ_lH8WthLFwNz-lASM5-43" style="edgeStyle=orthogonalEdgeStyle;rounded=0;orthogonalLoop=1;jettySize=auto;html=1;entryX=0;entryY=0.5;entryDx=0;entryDy=0;" parent="wJ_lH8WthLFwNz-lASM5-30" edge="1">
          <mxGeometry relative="1" as="geometry">
            <mxPoint x="120" y="450" as="targetPoint" />
            <mxPoint x="-165" y="410" as="sourcePoint" />
            <Array as="points">
              <mxPoint x="-165" y="400" />
              <mxPoint x="-165" y="420" />
              <mxPoint x="25" y="420" />
              <mxPoint x="25" y="450" />
            </Array>
          </mxGeometry>
        </mxCell>
        <mxCell id="wJ_lH8WthLFwNz-lASM5-44" value="" style="rounded=1;whiteSpace=wrap;html=1;" parent="wJ_lH8WthLFwNz-lASM5-30" vertex="1">
          <mxGeometry x="120" y="420" width="120" height="60" as="geometry" />
        </mxCell>
        <mxCell id="wJ_lH8WthLFwNz-lASM5-45" value="The &lt;span style=&quot;&quot; data-end=&quot;2019&quot; data-start=&quot;1992&quot;&gt;system saves the recipe&lt;/span&gt; in the user’s favorites list" style="text;html=1;align=center;verticalAlign=middle;whiteSpace=wrap;rounded=0;" parent="wJ_lH8WthLFwNz-lASM5-30" vertex="1">
          <mxGeometry x="125" y="435" width="105" height="30" as="geometry" />
        </mxCell>
        <mxCell id="wJ_lH8WthLFwNz-lASM5-47" value="" style="endArrow=none;html=1;rounded=0;entryX=0.441;entryY=1.333;entryDx=0;entryDy=0;entryPerimeter=0;endFill=1;startArrow=classic;startFill=1;" parent="wJ_lH8WthLFwNz-lASM5-30" edge="1">
          <mxGeometry width="50" height="50" relative="1" as="geometry">
            <mxPoint x="-150" y="510" as="sourcePoint" />
            <mxPoint x="199" y="480" as="targetPoint" />
            <Array as="points">
              <mxPoint x="200" y="510" />
            </Array>
          </mxGeometry>
        </mxCell>
        <mxCell id="wJ_lH8WthLFwNz-lASM5-55" style="edgeStyle=orthogonalEdgeStyle;rounded=0;orthogonalLoop=1;jettySize=auto;html=1;endArrow=circle;endFill=0;" parent="wJ_lH8WthLFwNz-lASM5-30" source="wJ_lH8WthLFwNz-lASM5-52" edge="1">
          <mxGeometry relative="1" as="geometry">
            <mxPoint x="195" y="640" as="targetPoint" />
          </mxGeometry>
        </mxCell>
        <mxCell id="wJ_lH8WthLFwNz-lASM5-52" value="&lt;br&gt;The &lt;span style=&quot;&quot; data-end=&quot;2173&quot; data-start=&quot;2121&quot;&gt;system fetches and displays all favorite recipes&lt;/span&gt;.&lt;div&gt;&lt;br/&gt;&lt;/div&gt;" style="rounded=1;whiteSpace=wrap;html=1;" parent="wJ_lH8WthLFwNz-lASM5-30" vertex="1">
          <mxGeometry x="135" y="530" width="120" height="60" as="geometry" />
        </mxCell>
      </root>
    </mxGraphModel>
  </diagram>
</mxfile>
